HIERARCHY
ROOT Hips
{
	OFFSET 0.000000 0.000000 0.000000
	CHANNELS 6 Xposition Yposition Zposition Zrotation Yrotation Xrotation 
	JOINT LHipJoint
	{
		OFFSET 0.000000 0.000000 0.000000
		CHANNELS 3 Zrotation Yrotation Xrotation
		JOINT LeftUpLeg
		{
			OFFSET 1.363060 -1.794630 0.839290
			CHANNELS 3 Zrotation Yrotation Xrotation
			JOINT LeftLeg
			{
				OFFSET 2.448110 -6.726130 0.000000
				CHANNELS 3 Zrotation Yrotation Xrotation
				JOINT LeftFoot
				{
					OFFSET 2.562200 -7.039590 0.000000
					CHANNELS 3 Zrotation Yrotation Xrotation
					JOINT LeftToeBase
					{
						OFFSET 0.157640 -0.433110 2.322550
						CHANNELS 3 Zrotation Yrotation Xrotation
						End Site
						{
							OFFSET 0.000000 0.000000 0.000000
						}
					}
				}
			}
		}
	}
	JOINT RHipJoint
	{
		OFFSET 0.000000 0.000000 0.000000
		CHANNELS 3 Zrotation Yrotation Xrotation
		JOINT RightUpLeg
		{
			OFFSET -1.305520 -1.794630 0.839290
			CHANNELS 3 Zrotation Yrotation Xrotation
			JOINT RightLeg
			{
				OFFSET -2.542530 -6.985550 0.000000
				CHANNELS 3 Zrotation Yrotation Xrotation
				JOINT RightFoot
				{
					OFFSET -2.568260 -7.056230 0.000000
					CHANNELS 3 Zrotation Yrotation Xrotation
					JOINT RightToeBase
					{
						OFFSET -0.164730 -0.452590 2.363150
						CHANNELS 3 Zrotation Yrotation Xrotation
						End Site
						{
							OFFSET 0.000000 0.000000 0.000000
						}
					}
				}
			}
		}
	}
}
MOTION
Frames: 24
Frame Time: 0.008333
-4.692951 15.283184 -1.931362 25.968921 77.819932 55.560576 -11.036912 1.429792 -6.782520 -16.830511 17.007357 -45.829990 -0.443937 5.773067 72.838745 -0.105905 -4.077979 -8.873267 0.185900 0.000000 -79.794000 7.616520 1.154888 -0.884371 23.491367 1.121337 -76.922425 1.551107 -5.241707 54.262092 -6.681314 -20.285771 -25.679556 -175.292400 -0.000000 -25.879200
-4.568941 15.276105 -1.901636 24.944568 77.367515 54.260798 -11.148529 1.492007 -6.730887 -16.249130 17.295326 -45.270975 -0.359485 5.795556 73.092165 -0.192374 -4.957337 -7.688255 0.149100 0.000000 -80.876999 7.635682 1.207123 -0.937658 23.381835 1.103080 -76.512496 1.432153 -5.275694 55.325828 -6.660988 -20.263362 -26.267633 -175.015900 -0.000000 -25.746300
-4.444807 15.270909 -1.870177 23.948286 76.894934 53.018195 -11.248503 1.557816 -6.668898 -15.703510 17.558432 -44.739259 -0.280432 5.811346 73.306106 -0.264332 -5.799554 -6.512817 0.075100 -0.000000 -81.766100 7.657802 1.244829 -0.961866 23.272502 1.134616 -76.035622 1.333340 -5.286407 56.216801 -6.651193 -20.228133 -26.919036 -174.722500 -0.000000 -25.635800
-4.320514 15.267420 -1.836781 23.006948 76.401107 51.866692 -11.335314 1.627348 -6.595812 -15.212698 17.797157 -44.254326 -0.206179 5.820667 73.490668 -0.319995 -6.569064 -5.359199 -0.032600 -0.000000 -82.393799 7.683927 1.270430 -0.949882 23.141158 1.228769 -75.515941 1.248952 -5.276545 56.955896 -6.653448 -20.195569 -27.607801 -174.420200 -0.000000 -25.581900
-4.196127 15.265590 -1.801484 22.162031 75.886880 50.848328 -11.408568 1.700611 -6.510797 -14.792392 18.007654 -43.826524 -0.134722 5.823275 73.656583 -0.359713 -7.250694 -4.214947 -0.170900 0.000000 -82.723500 7.715650 1.287223 -0.902656 22.975831 1.372913 -74.982320 1.174782 -5.252095 57.578133 -6.663987 -20.162962 -28.310145 -174.118900 0.000000 -25.608100
-4.071747 15.265514 -1.764619 21.442760 75.353409 49.990434 -11.469356 1.777226 -6.413170 -14.453217 18.186162 -43.464727 -0.063441 5.819584 73.816932 -0.384630 -7.842846 -3.055844 -0.338200 0.000000 -82.647900 7.753630 1.297827 -0.825269 22.774711 1.544101 -74.461517 1.108057 -5.219562 58.119478 -6.676705 -20.118635 -29.002383 -173.830200 -0.000000 -25.701199
-3.947579 15.267237 -1.726309 20.828261 74.800182 49.279461 -11.518502 1.855770 -6.303322 -14.200464 18.338396 -43.189503 0.007403 5.811380 73.981516 -0.394609 -8.320455 -1.901281 -0.526099 0.000000 -82.193900 7.795919 1.301445 -0.716066 22.542421 1.746118 -73.976685 1.046324 -5.181611 58.594914 -6.689844 -20.064462 -29.655996 -173.565599 0.000000 -25.834300
-3.823878 15.270937 -1.687054 20.317872 74.227404 48.710839 -11.558223 1.935388 -6.182512 -14.033714 18.466003 -43.005652 0.079439 5.800479 74.164014 -0.391605 -8.692432 -0.740407 -0.730200 -0.000000 -81.173600 7.841533 1.298824 -0.583630 22.291676 1.952519 -73.543700 0.989971 -5.143338 59.027914 -6.696924 -19.980761 -30.259677 -173.334099 0.000000 -26.009000
-3.701121 15.276730 -1.647033 19.881544 73.635805 48.256554 -11.589902 2.014411 -6.053016 -13.947599 18.578178 -42.923469 0.151546 5.789167 74.370111 -0.376722 -8.947733 0.400552 -0.938900 0.000000 -79.701100 7.888021 1.288185 -0.430917 22.037255 2.159045 -73.170531 0.939512 -5.106275 59.421639 -6.695149 -19.860159 -30.796635 -173.144700 -0.000000 -26.152100
-3.579686 15.284673 -1.606499 19.499503 73.026167 47.892839 -11.615428 2.091719 -5.918167 -13.932469 18.682641 -42.942038 0.223218 5.779829 74.607216 -0.352126 -9.091511 1.500206 -1.141700 0.000001 -77.700300 7.933459 1.268650 -0.265564 21.795863 2.349607 -72.855992 0.897223 -5.072265 59.779113 -6.681011 -19.687667 -31.268079 -173.000900 -0.000001 -26.266100
-3.460186 15.294734 -1.565562 19.154128 72.400117 47.595141 -11.636047 2.166166 -5.782203 -13.975720 18.788896 -43.054819 0.293342 5.774486 74.877178 -0.319978 -9.128526 2.532036 -1.327000 -0.000000 -75.249100 7.976357 1.239405 -0.095097 21.582160 2.511450 -72.589427 0.865563 -5.041827 60.096209 -6.652044 -19.451695 -31.677990 -172.904300 0.000000 -26.315401
-3.343162 15.306803 -1.524219 18.830800 71.759720 47.340147 -11.652657 2.236812 -5.649860 -14.062839 18.905798 -43.249494 0.360710 5.774822 75.179129 -0.282558 -9.065701 3.466419 -1.484200 -0.000000 -72.417300 8.015699 1.200341 0.072989 21.406651 2.634197 -72.354028 0.847001 -5.014691 60.366044 -6.607146 -19.144294 -32.038411 -172.852300 -0.000000 -26.303000
-3.229176 15.320656 -1.482394 18.519876 71.107963 47.108001 -11.665796 2.302966 -5.526018 -14.178524 19.041104 -43.508329 0.424179 5.781949 75.508960 -0.242038 -8.911531 4.276010 -1.604399 0.000000 -69.320800 8.051041 1.152049 0.231759 21.275113 2.711070 -72.127997 0.843425 -4.989805 60.580209 -6.546539 -18.763130 -32.364143 -172.839500 -0.000000 -26.233499
-3.118828 15.336052 -1.439806 18.218788 70.447767 46.884920 -11.674989 2.363746 -5.415234 -14.307906 19.200303 -43.810784 0.482793 5.795923 75.857667 -0.200063 -8.675701 4.946017 -1.683299 -0.000000 -66.205800 8.083055 1.096180 0.375469 21.186341 2.739405 -71.887926 0.855602 -4.965656 60.731478 -6.471860 -18.312774 -32.671352 -172.858400 0.000000 -26.129300
-3.012451 15.352681 -1.396466 17.930244 69.780609 46.661808 -11.680480 2.419374 -5.321234 -14.439013 19.384313 -44.133026 0.535906 5.816822 76.219226 -0.158389 -8.369242 5.455613 -1.717600 0.000001 -63.045700 8.112686 1.035673 0.498028 21.134511 2.713892 -71.611629 0.883572 -4.940915 60.817176 -6.383997 -17.797203 -32.972177 -172.903000 -0.000000 -25.981301
-2.910550 15.370222 -1.351954 17.655429 69.109492 46.431828 -11.680670 2.468599 -5.246775 -14.560251 19.592974 -44.456285 0.583052 5.843108 76.580518 -0.117629 -8.003210 5.811669 -1.710700 0.000000 -60.189500 8.141715 0.973441 0.598272 21.106950 2.644713 -71.281922 0.925380 -4.913514 60.834947 -6.287552 -17.235626 -33.279345 -172.963600 -0.000000 -25.841100
-2.813266 15.388360 -1.306148 17.399087 68.434741 46.193605 -11.674794 2.511140 -5.193131 -14.664520 19.821151 -44.763427 0.624009 5.873396 76.932659 -0.078444 -7.588972 6.016348 -1.666600 0.000000 -57.694100 8.172032 0.913189 0.675172 21.088356 2.538813 -70.887425 0.978278 -4.882076 60.788881 -6.185609 -16.644278 -33.597370 -173.034000 0.000000 -25.718300
-2.720752 15.406853 -1.258931 17.166625 67.756241 45.949591 -11.661746 2.546468 -5.160340 -14.748151 20.060715 -45.042789 0.658726 5.905861 77.266830 -0.041050 -7.136650 6.079935 -1.591300 -0.000000 -55.632800 8.205725 0.858786 0.729928 21.060686 2.407623 -70.424662 1.038537 -4.845605 60.686702 -6.081844 -16.042639 -33.927735 -173.108500 -0.000000 -25.630100
-2.632878 15.425510 -1.210329 16.957381 67.072232 45.701264 -11.640811 2.573964 -5.146933 -14.810069 20.301901 -45.290935 0.687348 5.938890 77.576911 -0.005452 -6.655202 6.015223 -1.491299 0.000000 -54.006200 8.244260 0.813266 0.766267 21.007479 2.267882 -69.897700 1.101785 -4.803378 60.538090 -5.979814 -15.451197 -34.264784 -173.183300 -0.000000 -25.577100
-2.549471 15.444187 -1.160386 16.773281 66.380692 45.455553 -11.611183 2.592984 -5.150352 -14.853131 20.532357 -45.510007 0.710128 5.970725 77.857424 0.028696 -6.151088 5.839728 -1.373200 0.000000 -52.794700 8.289078 0.779342 0.788656 20.913607 2.136033 -69.317302 1.163640 -4.755421 60.355588 -5.882432 -14.887839 -34.601483 -173.255300 0.000000 -25.565800
-2.470243 15.462879 -1.109265 16.611424 65.678983 45.217365 -11.572592 2.602883 -5.167134 -14.881986 20.739145 -45.708448 0.727485 6.000100 78.105676 0.061898 -5.628275 5.569944 -1.242799 0.000000 -51.922900 8.340736 0.758693 0.802227 20.768892 2.028713 -68.698782 1.220149 -4.702155 60.151386 -5.791771 -14.367230 -34.927108 -173.322800 -0.000000 -25.584500
-2.394824 15.481578 -1.057220 16.467825 64.964824 44.992631 -11.525179 2.603059 -5.193131 -14.902194 20.909119 -45.898629 0.739968 6.026054 78.320576 0.094913 -5.087914 5.223103 -1.105000 0.000000 -51.298800 8.399094 0.752018 0.812123 20.567913 1.960811 -68.059821 1.268236 -4.644301 59.936575 -5.708966 -13.898875 -35.231286 -173.385500 -0.000000 -25.618500
-2.322801 15.500341 -1.004513 16.336638 64.236479 44.786023 -11.469438 2.592942 -5.223906 -14.919677 21.028964 -46.095134 0.748194 6.047961 78.502300 0.128670 -4.528425 4.814101 -0.963600 0.000000 -50.822800 8.463257 0.758986 0.822447 20.311721 1.943416 -67.418197 1.305979 -4.582810 59.719889 -5.634229 -13.487225 -35.504119 -173.443700 0.000000 -25.650200
-2.253746 15.519275 -0.951384 16.209567 63.493813 44.600000 -11.406083 2.571715 -5.255114 -14.938401 21.087676 -46.314784 0.752841 6.065713 78.653123 0.164081 -3.947464 4.353856 -0.820999 -0.000000 -50.381299 8.531514 0.778096 0.837210 20.005986 1.986429 -66.789138 1.332665 -4.518221 59.504531 -5.567561 -13.133274 -35.738403 -173.497800 0.000001 -25.660501
